<?xml version="1.0" standalone="no"?>
<!DOCTYPE svg PUBLIC "-//W3C//DTD SVG 20010904//EN"
 "http://www.w3.org/TR/2001/REC-SVG-20010904/DTD/svg10.dtd">
<svg version="1.0" xmlns="http://www.w3.org/2000/svg"
 width="700.000000pt" height="700.000000pt" viewBox="0 0 700.000000 700.000000"
 preserveAspectRatio="xMidYMid meet">
<metadata>
Created by potrace 1.14, written by Peter Selinger 2001-2017
</metadata>
<g transform="translate(0.000000,700.000000) scale(0.100000,-0.100000)"
fill="#000000" stroke="none">
<path d="M3305 6993 c-33 -2 -123 -10 -200 -19 -656 -72 -1272 -330 -1800
-750 -141 -113 -416 -388 -529 -529 -419 -526 -673 -1135 -752 -1805 -24 -198
-24 -582 0 -780 79 -670 333 -1279 752 -1805 113 -141 388 -416 529 -529 772
-615 1735 -876 2710 -735 906 131 1730 623 2285 1364 343 458 567 987 655
1548 87 560 42 1110 -135 1647 -349 1062 -1195 1896 -2270 2238 -380 121 -831
177 -1245 155z m547 -2320 l3 -467 468 3 467 3 0 -1176 0 -1176 -1290 0 -1290
0 0 1640 0 1640 820 0 820 0 2 -467z m858 -325 c0 -5 -162 -8 -360 -8 l-360 0
0 367 0 368 360 -360 c198 -198 360 -363 360 -367z"/>
<path d="M3045 3570 l-200 -200 -90 90 -91 90 -49 -50 -50 -50 138 -138 137
-137 252 252 253 253 -45 45 c-24 25 -47 45 -50 45 -3 0 -95 -90 -205 -200z"/>
<path d="M3460 3393 l0 -68 457 4 c331 2 460 6 465 15 4 6 8 35 8 64 l0 52
-465 0 -465 0 0 -67z"/>
<path d="M3045 2690 l-200 -200 -90 90 -91 90 -49 -50 -50 -50 138 -138 137
-137 252 252 253 253 -45 45 c-24 25 -47 45 -50 45 -3 0 -95 -90 -205 -200z"/>
<path d="M3460 2513 l0 -68 457 4 c331 2 460 6 465 15 4 6 8 35 8 64 l0 52
-465 0 -465 0 0 -67z"/>
</g>
</svg>
